<?xml version="1.0" encoding="UTF-8"?>
<svg xmlns="http://www.w3.org/2000/svg" version="1.1" viewBox="0 0 1721.433 3086.997">
  <!-- Generator: Adobe Illustrator 28.7.7, SVG Export Plug-In . SVG Version: 1.2.0 Build 194)  -->
  <g style="isolation: isolate;">
    <g id="_x3C_Layer_x3E_">
      <g>
        <path d="M537.059,2296.51c-14.678,1.157-29.322,2.379-43.882,3.964,14.49-2.866,29.205-4.232,43.882-3.964Z" style="fill: #231f20;"/>
        <g>
          <path d="M757.833,2645.451c24.44-78.036,30.664-165.665-7.606-240.49-44.101-86.224-141.164-143.219-238.573-121.446-12.993,2.904-25.375,7.267-37.461,12.833-3.941,1.815-5.327,4.735-4.856,7.047-29.409,5.029-58.284,12.698-86.192,25.618-59.11,27.364-109.93,70.432-150.572,121.011-22,27.379-40.312,56.88-51.886,90.189-11.82,34.015-17.027,70.136-18.152,106.032-2.052,65.469,16.584,132.192.327,196.92-13.997,55.731-65.128,110.907-126.526,105.195-4.901-.456-15.231,6.991-8.057,11.248,27.242,16.167,52.194,36.245,80.458,50.685,26.506,13.542,55.549,21.636,84.918,26.023,55.412,8.277,113.757,4.174,168.531-6.924,101.538-20.573,193.747-75.685,263.307-152.02,59.74-65.56,105.828-147.266,132.34-231.92Z" style="fill: #231f20;"/>
          <path d="M632.956,2842.176c-60.006,76.239-141.65,135.152-234.992,162.915-49.977,14.864-104.025,20.928-156.076,19.455-27.425-.776-54.603-4.623-81.012-12.136-30.253-8.606-57.106-24.276-83.645-40.785-6.703-4.17-13.413-8.325-20.17-12.399,42.554-6.644,80.205-36.038,102.605-72.483,33.083-53.827,26.708-117.997,21.856-178.159-5.799-71.904-2.055-146.493,34.481-210.661,16.936-29.746,39.868-56.695,63.913-80.909,23.283-23.448,48.963-44.525,77.246-61.681,33.652-20.412,70.171-34.09,108.772-41.637,37.884-7.407,76.486-10.223,114.542-16.716,13.934,2.379,27.664,6.265,40.929,11.851,41.663,17.545,76.507,49.187,100.399,87.376,42.222,67.482,41.065,150.78,21.664,225.538-20.565,79.244-59.931,156.168-110.511,220.43Z" style="fill: #393839;"/>
          <path d="M537.4,2317.973c-65.006,25.316-128.26,63.547-175.429,115.427-49.798,54.771-82.921,125.943-98.251,198.046-9.064,42.634-11.598,85.522-6.428,128.816.484,4.056,8.015,2.217,7.902-1.33-2.408-75.467,14.925-149.432,47.063-217.514,15.375-32.571,33.893-64.01,57.119-91.626,21.29-25.313,46.626-47.779,73.442-67.082,31.152-22.424,64.578-40.48,98.186-58.84,5.054-2.761,1.15-7.746-3.602-5.896Z" style="fill: #231f20;"/>
          <path d="M554.474,2346.818c-28.127,17.056-53.422,40.477-78.14,62.081-24.983,21.835-48.891,44.975-69.777,70.812-36.631,45.314-67.015,98.798-87.254,153.405-11.027,29.753-18.612,60.908-17.308,92.803.153,3.732,6.869,1.905,7.105-1.196,4.394-57.691,30.262-112.082,58.806-161.441,13.795-23.854,28.543-47.463,45.262-69.394,19.997-26.23,43.437-49.628,67.958-71.61,13.531-12.129,27.434-23.833,41.404-35.451,13.614-11.321,27.765-22.373,39.21-35.938,3.908-4.631-4.448-5.78-7.266-4.072Z" style="fill: #231f20;"/>
          <path d="M561.299,2494.611c17.561-44.633,37.121-88.544,62.939-129.09,1.9-2.983-3.307-3.149-4.725-1.182-100.241,138.958-126.779,315.714-225.499,455.374-27.8,39.327-60.643,73.601-101.274,99.762-2.628,1.693.031,3.729,2.239,2.466,155.053-88.707,205.127-271.792,266.32-427.329Z" style="fill: #231f20;"/>
          <path d="M679.755,2505.888c7.163-42.559,7.515-91.369-5.727-132.817-1.991-6.23-14.236-3.418-16.871,1.93-.404-9.982-1.88-19.856-5.891-28.878-2.969-6.677-15.328-2.111-15.795,4.206-1.159,15.699.837,31.376.522,47.111-.318,15.873-1.835,31.715-4.088,47.424-4.773,33.275-13.079,65.933-22.707,98.106-21.332,71.278-49.158,140.759-89.275,203.67-24.39,38.249-52.029,74.008-83.435,106.759-6.015,6.274,4.498,9.564,8.978,5.007,56.857-57.821,103.988-122.946,138.519-196.438,30.51-64.936,52.669-135.73,65.745-206.276,3.448-18.598,6.01-37.404,6.975-56.305.299-5.865.579-11.914.585-17.976,3.316,20.413,7.753,40.53,9.293,61.226,1.565,21.036.753,42.257-2.167,63.144-6.058,43.327-20.896,84.139-41.396,122.658-2.43,4.567,7.174,4.444,9.064,1.196,22.306-38.327,40.274-79.798,47.671-123.747Z" style="fill: #231f20;"/>
          <path d="M721.072,2496.824c-.088-35.73-5.113-71.836-22.295-103.484-2.124-3.913-10.424-1.064-9.214,3.384,8.133,29.911,14.85,60.697,15.917,91.762,1.102,32.068-2.63,64.284-9.9,95.503-14.807,63.586-42.667,123.448-78.012,178.127-18.683,28.904-40.016,56.086-63.85,80.918-3.285,3.422,2.353,5.01,4.854,2.708,47.524-43.752,85.553-97.714,113.853-155.608,29.274-59.887,48.814-126.233,48.648-193.31Z" style="fill: #231f20;"/>
          <g style="mix-blend-mode: multiply; opacity: .45;">
            <path d="M743.466,2621.748c19.402-74.761,20.559-158.06-21.663-225.539-23.892-38.19-58.734-69.833-100.398-87.378-13.266-5.583-26.994-9.472-40.93-11.849-38.055,6.491-76.657,9.308-114.542,16.716-38.601,7.544-75.119,21.223-108.772,41.638-28.282,17.154-53.963,38.232-77.244,61.677-24.045,24.216-46.979,51.166-63.914,80.911-17.05,29.946-26.895,62.176-32.025,95.331,14.629-38.14,33.449-74.764,58.405-107.025,34.685-44.839,82.15-78.823,139.08-87.252,3.522-.521,6.241,4.293,3.669,6.917-16.152,16.475-31.523,33.72-45.734,51.901-48.454,61.988-84.208,137.302-79.285,217.042,14.58-31.98,27.126-64.856,42.298-96.593,17.739-37.103,38.023-76.293,68.554-104.624,12.082-11.21,26.279-20.603,42.704-23.73,15.35-2.92,33.035.391,45.118,10.678,27.462,23.384,15.689,69.032,6.49,98.168-1.864,5.904-3.931,11.738-6.082,17.543,6.255-10.452,12.712-20.78,19.689-30.771,14.296-20.474,30.916-40.061,52.047-53.749,1.74-1.13,4.764-1.039,5.891,1.017,2.966,5.435,5.513,11.051,7.503,16.917,9,26.531,8.128,55.622,3.751,82.948-5.294,33.049-15.967,65.21-28.674,96.089-25.447,61.838-59.628,121-99.712,174.504-21.14,28.217-44.809,54.769-72.048,77.238-32.816,27.07-70.822,48.099-111.087,61.819-18.44,6.282-37.436,11.02-56.596,14.86,20.348,4.408,41.064,6.802,61.928,7.394,52.051,1.471,106.099-4.59,156.076-19.456,93.342-27.763,174.986-86.676,234.992-162.914,50.58-64.262,89.946-141.186,110.51-220.429Z" style="fill: #393839;"/>
          </g>
          <g style="mix-blend-mode: multiply; opacity: .61;">
            <path d="M743.466,2621.748c19.402-74.761,20.559-158.06-21.663-225.539-23.892-38.19-58.734-69.833-100.398-87.378-13.266-5.583-26.994-9.472-40.93-11.849-38.055,6.491-76.657,9.308-114.542,16.716-32.11,6.276-62.751,16.866-91.529,31.978,3.753-.211,7.489-.381,11.182-.471,24.537-.608,49.446,1.348,73.229,7.64,32.144,8.509,60.392,27.243,88.705,44.011,14.222,8.424,28.27,16.44,43.927,21.87,14.247,4.941,28.817,8.874,43.157,13.531,23.175,7.53,47.31,16.986,61.68,37.742,20.706,29.91,21.095,69.542,16.629,104.262-5.482,42.611-19.121,84.201-35.41,123.812-13.73,33.388-29.642,66.254-48.888,96.84-31.799,50.537-71.287,96.5-115.939,136.09-23.585,20.91-48.804,40.019-75.555,56.705-5.57,3.474-11.222,6.798-16.923,10.023,84.055-30.052,157.573-85.441,212.758-155.554,50.58-64.262,89.946-141.186,110.51-220.429Z" style="fill: #393839;"/>
          </g>
          <g style="mix-blend-mode: screen;">
            <path d="M159.665,2886.743c-22.4,36.447-60.05,65.84-102.605,72.483,6.758,4.075,13.468,8.229,20.17,12.401.821.511,1.648,1.01,2.469,1.521,12.885-3.872,25.487-8.708,37.135-15.28,27.254-15.377,53.582-38.783,67.766-67.057,15.492-30.88,16.079-65.816,20.134-99.412.484-4.02,7.041-4.945,8.132-.81,3.296,12.471,4.016,26.354,11.74,36.967,4.245-5.903,6.585-13.078,8.133-20.137,2.39-10.908,3.269-22.133,3.708-33.273.804-20.403-.435-40.796-.384-61.204.045-17.725,4.965-34.5,10.261-51.295,6.458-20.479,13.908-40.67,19.382-61.452,4.179-15.871,8.464-33.984,5.126-50.526-17.003,6.457-29.048,21.971-37.723,37.465-9.492,16.955-16.288,35.511-20.993,54.34-1.302,5.213-9.421,4.05-8.347-1.339,7.666-38.485,14.855-77.229,27.542-114.459,20.074-58.913,54.752-110.813,100.067-152.954-18.298,13.356-35.49,28.205-51.463,44.291-24.045,24.216-46.979,51.166-63.914,80.911-36.535,64.167-40.279,138.756-34.481,210.662,4.852,60.161,11.227,124.334-21.856,178.158Z" style="fill: #393839;"/>
          </g>
          <g style="mix-blend-mode: screen;">
            <path d="M400.061,2664.625c.782-9.355.418-19.115-3.006-27.957-2.642-6.826-7.047-15.738-14.924-17.543-6.599-1.513-13.244,2.669-18.221,6.514-5.777,4.46-10.747,9.945-15.281,15.697-2.005,3.563-3.95,7.144-5.829,10.747-14.323,27.47-25.573,56.746-32.992,86.834-5.105,20.711-8.075,41.801-8.2,63.163-.055,9.632.262,19.506,2.296,28.957.704,3.26,1.633,6.714,3.319,9.624,1.196,2.06,2.51,3.535,4.171,3.666,6.564.512,13.729-9.837,17.229-14.506,6.741-8.987,12.469-18.808,18.1-28.519,12.243-21.112,23.398-42.919,32.924-65.392,9.588-22.618,18.352-46.626,20.413-71.288Z" style="fill: #393839;"/>
          </g>
          <g style="mix-blend-mode: screen;">
            <path d="M447.416,2631.934c-5.335,6.866-9.386,15.007-12.134,22.449-4.171,11.298-6.937,27.26,1.716,37.139,6.205-3.072,11.224-7.977,14.519-14.14,5.815-10.875,7.907-25.402,3.316-37.1-1.421-3.619-3.958-7.239-7.418-8.349Z" style="fill: #393839;"/>
          </g>
        </g>
        <g>
          <g>
            <path d="M1683.355,200.671c11.801-110.78-6.447-137.838-19.28-143.847-.101-.049-.193-.103-.297-.152-.105-.047-.206-.081-.31-.125-12.951-5.749-45.346-1.787-121.255,79.756-111.415,119.685-565.888,799.879-816.759,1349.969,0,0-100.679,220.759-84.036,337.643l104.951,47.863,148.38,67.669,104.951,47.864c99.166-64.068,199.845-284.828,199.845-284.828,250.872-550.09,466.49-1339.215,483.811-1501.813Z" style="fill: #674126;"/>
            <g style="mix-blend-mode: multiply; opacity: .61;">
              <path d="M1683.356,200.67c11.801-110.779-6.449-137.836-19.281-143.847-.101-.051-.194-.102-.297-.153-.106-.043-.205-.08-.31-.122-5.924-2.63-15.937-3.2-32.298,4.725-106.186,210.416-190.724,431.009-277.638,649.87-47.685,120.078-96.137,239.907-149.41,357.632-31.885,70.461-66.157,139.741-101.006,208.769-54.801,108.546-112.932,218.508-188.97,313.912-29.552,37.078-65.804,80.153-112.003,96.516-45.009,15.944-84.396-13.028-96.641-57.197-9.264-33.415-5.035-69.403,2.356-102.92-28.054,69.608-78.613,210.571-66.44,296.058l358.282,163.397c99.166-64.068,199.844-284.825,199.844-284.825,250.871-550.09,466.49-1339.216,483.812-1501.814Z" style="fill: #674126;"/>
            </g>
            <g style="mix-blend-mode: multiply; opacity: .61;">
              <path d="M1683.356,200.67c11.801-110.779-6.449-137.836-19.281-143.847-.101-.051-.194-.102-.297-.153-.106-.043-.205-.08-.31-.122-5.197-2.307-13.545-3.021-26.559,2.185,5.405,11.183,7.753,24.996,8.644,36.52,3.542,45.797-4.653,92.859-13.115,137.695-20.3,107.56-52.231,212.56-83.567,317.269-61.06,204.029-129.061,405.451-199.391,606.432-67.366,192.507-137.319,383.768-220.121,570.265-33.469,75.381-69.65,149.933-114.238,219.454-7.928,12.361-16.161,24.627-24.741,36.691l9.32,4.251c99.166-64.068,199.844-284.825,199.844-284.825,250.871-550.09,466.49-1339.216,483.812-1501.814Z" style="fill: #674126;"/>
            </g>
            <path d="M996.192,1995l-358.28-163.396c-2.621-1.195-4.452-3.645-4.865-6.5-16.796-117.978,80.568-333.239,84.72-342.341C962.181,946.829,1418.148,257.173,1536.029,130.541c61.099-65.642,105.136-93.133,130.869-81.725.131.07.702.33.826.377,25.427,11.922,33.541,63.197,24.036,152.37h0c-18.327,172.034-240.111,968.49-484.525,1504.424-4.151,9.102-102.852,223.754-202.945,288.424-2.426,1.56-5.476,1.784-8.097.589ZM649.207,1818.175l349.719,159.491c94.753-65.155,191.945-276.539,192.928-278.694,243.744-534.461,464.83-1327.915,483.102-1499.194h0c12.099-113.581-8.014-132.28-14.472-135.307-6.955-3.09-34.261-6.017-112.09,77.588-117.308,126.031-571.489,813.226-815.247,1347.718-.983,2.155-96.868,214.135-83.94,328.398Z" style="fill: #503118;"/>
            <g style="mix-blend-mode: screen;">
              <path d="M772.796,1753.96c30.557-14.329,63.967-5.991,93.18,7.431,34.957,16.065,73.111,42.633,113.192,33.659-6.381-9.8-14.271-18.338-23.429-25.758-45.318-36.73-108.004-48.834-147.447-93.458-34.112-38.596-30.436-89.819-16.531-136.033,16.574-55.085,44.889-106.294,73.579-155.848,28.757-49.67,57.202-98.986,83.838-149.864,84.448-161.302,164.959-324.671,252.261-484.472,40.141-73.477,83.179-145.233,124.301-218.145,36.382-64.504,71.698-129.617,109.23-193.469,58.053-98.762,121.903-197.57,202.762-279.598-19.394,7.499-49.423,28.382-95.517,77.897-111.416,119.686-565.889,799.881-816.761,1349.971,0,0-100.678,220.757-84.035,337.64l60.124,27.42c12.181-40.722,34.063-79.937,71.253-97.373Z" style="fill: #674126;"/>
            </g>
          </g>
          <g>
            <path d="M641.417,1823.915l-169.96,473.325s20.491,41.65,131.567,85.363c105.832,55.21,150.716,43.374,150.716,43.374l245.958-438.665c-37.665-54.296-292.59-170.556-358.282-163.397Z" style="fill: #848689;"/>
            <g style="mix-blend-mode: multiply; opacity: .53;">
              <path d="M545.973,2261.265c13.617-50.215,31.133-99.186,47.273-148.626,30.836-94.458,60.565-189.286,91.946-283.569-18.234-4.306-33.388-6.29-43.773-5.157l-169.96,473.325s9.811,19.906,52.542,46.628c7.454-27.495,14.516-55.107,21.972-82.601Z" style="fill: #848689;"/>
            </g>
            <g style="mix-blend-mode: screen;">
              <path d="M709.786,2103.267c33.618-76.574,66.785-153.359,98.253-230.841-24.162-10.434-48.173-19.924-70.452-27.662-15.527,36.701-30.509,73.628-44.963,110.764-38.121,97.945-72.958,197.129-106.97,296.567-12.11,35.406-24.124,70.852-36.141,106.292,11.786,6.169,25.31,12.545,40.731,18.997,38.932-91.764,79.471-182.841,119.542-274.117Z" style="fill: #848689;"/>
            </g>
            <g style="mix-blend-mode: multiply; opacity: .53;">
              <path d="M917.841,1926.598c-29.965,44.573-59.283,89.577-87.987,134.975-69.198,109.447-135.915,220.664-195.219,335.82-.079.154-.157.309-.239.468,83.373,37.55,119.345,28.113,119.345,28.113l245.958-438.665c-11.32-16.317-42.329-38.234-81.859-60.712Z" style="fill: #848689;"/>
            </g>
            <g style="mix-blend-mode: multiply; opacity: .53;">
              <path d="M978.742,1966.47c-12.364,22.812-25.225,45.365-38.436,67.7-49.805,84.207-104.837,165.847-148.308,253.637-22.519,45.478-42.267,92.57-64.251,138.429,17.67,1.849,25.995-.261,25.995-.261l245.958-438.665c-4.317-6.224-11.531-13.27-20.958-20.84Z" style="fill: #848689;"/>
            </g>
            <path d="M628.44,2404.457c-9.11-4.155-18.745-8.848-28.926-14.154-112.555-44.29-134.746-87.515-135.635-89.327-1.011-2.058-1.145-4.433-.368-6.591l169.957-473.326c1.088-3.042,3.822-5.198,7.038-5.545,69.593-7.58,326.231,109.461,366.136,166.979,1.846,2.656,2.01,6.133.427,8.949l-245.961,438.665c-1.121,2.002-3.001,3.458-5.219,4.043-1.764.466-40.602,9.916-127.45-29.692ZM480.811,2296.214c6.849,9.61,35.801,43.38,125.312,78.523.277.108.548.231.811.37,85.01,44.412,129.577,44.261,141.453,43.127l241.203-430.183c-44.211-51.934-273.903-156.685-342.103-156.018l-166.676,464.181Z" style="fill: #2e3032;"/>
          </g>
        </g>
      </g>
    </g>
  </g>
</svg>